<?xml version="1.0" encoding="UTF-8"?>
<svg fill="#FFFFFF" width="100pt" height="100pt" version="1.1" viewBox="0 0 100 100" xmlns="http://www.w3.org/2000/svg">
 <path d="m88.387 47.238c0.31641-1.0547 0.47266-2.1445 0.47266-3.2539 0-6.3008-5.125-11.422-11.422-11.422-1.7695 0-3.5078 0.41406-5.0898 1.207-2.6094-5.2656-7.9492-8.6133-13.891-8.6133-5.6172 0-10.527 3.0078-13.25 7.4883-2.9727-1.9102-6.3906-2.9219-9.9609-2.9219-10.199 0-18.5 8.3008-18.5 18.5 0 0.38672 0.015625 0.78125 0.046875 1.2031-6.582 0.48047-11.793 5.9883-11.793 12.691 0 7.0156 5.7109 12.727 12.727 12.727h52.07c5.1328 0 9.3086-4.1758 9.3086-9.3086 0-0.90234-0.14062-1.7773-0.38672-2.6211h8.3945c4.3516 0 7.8867-3.5391 7.8867-7.8867 0-3.918-2.8672-7.1758-6.6133-7.7891zm-18.59 25.648h-52.07c-5.9375 0-10.77-4.832-10.77-10.77s4.8281-10.766 10.773-10.766h0.003906c0.019531 0 0.10938 0.007813 0.12891 0.007813 0.24219 0.011719 0.55078-0.11719 0.73828-0.32422 0.1875-0.21094 0.27344-0.49219 0.24219-0.76953-0.09375-0.76953-0.14062-1.418-0.14062-2.0352 0-9.1211 7.4219-16.543 16.543-16.543 3.2461 0 6.3516 0.9375 9.0391 2.7031-0.85547 1.9219-1.3438 4.0469-1.3438 6.2812 0 0.27344 0.007813 0.55078 0.027344 0.84375-5.4688 0.48438-9.7695 5.0898-9.7695 10.68 0 5.9102 4.8086 10.723 10.723 10.723h32.734c0.32031 0.83594 0.48828 1.7109 0.48828 2.6211 0.007813 4.0508-3.293 7.3477-7.3477 7.3477zm17.316-11.93h-43.188c-4.832 0-8.7656-3.9336-8.7656-8.7656 0-4.832 3.9297-8.7656 8.7578-8.7656 0.019531 0 0.097656 0.003907 0.11719 0.007813 0.31641 0.019531 0.55078-0.11328 0.73828-0.32422s0.27734-0.49219 0.24219-0.76953c-0.078125-0.63672-0.11328-1.168-0.11328-1.668 0-7.4727 6.082-13.555 13.555-13.555 5.5156 0 10.434 3.2969 12.535 8.4023 0.10937 0.26562 0.33203 0.47266 0.60547 0.55859 0.27344 0.089844 0.57422 0.050781 0.82031-0.10156 1.5117-0.94922 3.25-1.4531 5.0195-1.4531 5.2188 0 9.4648 4.2461 9.4648 9.4648 0 1.2969-0.26172 2.5586-0.77734 3.75-0.13281 0.30078-0.10156 0.64844 0.078125 0.92578 0.17969 0.27734 0.48828 0.44141 0.81641 0.44141 0.03125 0 0.085938-0.003907 0.13281-0.007813 3.25 0.023438 5.8867 2.6758 5.8867 5.9336 0.003907 3.2656-2.6562 5.9258-5.9258 5.9258z"/>
</svg>
