<?xml version="1.0" encoding="utf-8"?>
<!-- Generator: Adobe Illustrator 16.0.0, SVG Export Plug-In . SVG Version: 6.00 Build 0)  -->
<!DOCTYPE svg PUBLIC "-//W3C//DTD SVG 1.1//EN" "http://www.w3.org/Graphics/SVG/1.1/DTD/svg11.dtd">
<svg version="1.1" id="Layer_1" xmlns="http://www.w3.org/2000/svg" xmlns:xlink="http://www.w3.org/1999/xlink" x="0px" y="0px"
	 width="100px" height="100px" viewBox="0 0 100 100" enable-background="new 0 0 100 100" xml:space="preserve">
<g>
	<path fill="#FFFFFF" d="M26.093,57.286c-4.375-3.039-6.776-8.195-6.406-13.492c0.323-4.646,2.984-8.939,6.886-11.438
		c3.473-2.224,7.783-2.869,11.77-1.857c4.247,1.076,7.788,4.064,9.721,7.966c0.425,0.858,1.708,0.106,1.284-0.752
		c-2.325-4.688-6.831-8.068-11.995-8.944c-4.91-0.833-9.941,0.642-13.678,3.919c-3.558,3.117-5.547,7.753-5.521,12.458
		c0.03,5.364,2.805,10.38,7.183,13.424C26.131,59.118,26.875,57.83,26.093,57.286z"/>
	<path fill="#FFFFFF" d="M3.305,45.725h6.58c0.961,0,0.961-1.488,0-1.488h-6.58C2.348,44.237,2.348,45.725,3.305,45.725z"/>
	<path fill="#FFFFFF" d="M35.342,20.268v-6.581c0-0.96-1.487-0.96-1.487,0v6.581C33.855,21.224,35.342,21.224,35.342,20.268z"/>
	<path fill="#FFFFFF" d="M52.604,28.029c1.552-1.552,3.103-3.103,4.651-4.65c0.679-0.681-0.375-1.73-1.056-1.05
		c-1.551,1.551-3.103,3.104-4.649,4.65C50.874,27.659,51.924,28.709,52.604,28.029z"/>
	<path fill="#FFFFFF" d="M12.997,67.637l4.65-4.648c0.68-0.682-0.375-1.731-1.051-1.056c-1.551,1.552-3.103,3.103-4.649,4.65
		C11.267,67.262,12.32,68.312,12.997,67.637z"/>
	<path fill="#FFFFFF" d="M17.65,26.979L13,22.329c-0.68-0.68-1.73,0.374-1.049,1.05c1.551,1.551,3.103,3.104,4.65,4.65
		C17.277,28.709,18.327,27.659,17.65,26.979z"/>
	<path fill="#FFFFFF" d="M82.104,56.479c0,0.005,0.004,0.01,0.004,0.01c0.213-0.376,0.431-0.749,0.642-1.118h-0.004
		c-0.612,0-0.862,0.62-0.642,1.118c0.017,0.037,0.034,0.075,0.051,0.118c0.339,0.766,1.667,0.212,1.36-0.574
		c-0.013-0.029-0.025-0.06-0.034-0.093c-0.455,0.191-0.905,0.382-1.36,0.573c0.005,0.017,0.013,0.03,0.021,0.047
		c0.469,0.863,1.658,0.106,1.284-0.752c-0.009-0.021-0.021-0.048-0.029-0.068c-0.212,0.373-0.43,0.749-0.641,1.118
		c4.718,0.382,8.96,3.137,11.312,7.225c2.395,4.153,2.467,9.391,0.293,13.646c-2.113,4.135-6.244,7.091-10.856,7.698
		c-1.419,0.188-2.889,0.119-4.321,0.119H61.794H43.009h-4.094c-4.73,0-8.96-2.768-10.911-7.064
		c-2.096-4.604-0.752-10.139,2.924-13.504c1.712-1.573,3.894-2.547,6.181-2.907c1.518-0.243,3.128-0.12,4.659-0.12h0.157
		c0.961,0,0.961-1.487,0-1.487c-1.33,0-2.674-0.056-4,0.03c-2.401,0.152-4.739,0.986-6.711,2.358
		c-4.094,2.856-6.253,7.881-5.539,12.821c0.816,5.612,5.283,10.192,10.872,11.156c1.54,0.27,3.116,0.196,4.672,0.196h17.389h18.784
		h4.094c4.071,0,7.969-1.538,10.945-4.314c3.549-3.309,5.364-8.221,4.912-13.036c-0.449-4.842-3.165-9.217-7.229-11.859
		c-2.201-1.434-4.76-2.244-7.37-2.452c-0.62-0.052-0.847,0.654-0.642,1.118c0.008,0.021,0.021,0.046,0.029,0.067
		c0.431-0.251,0.854-0.502,1.283-0.752c-0.008-0.018-0.016-0.03-0.021-0.047c-0.344-0.765-1.666-0.213-1.361,0.573
		c0.015,0.03,0.027,0.059,0.035,0.094c0.455-0.191,0.906-0.382,1.36-0.573c-0.017-0.038-0.034-0.077-0.051-0.12
		c-0.212,0.374-0.43,0.748-0.643,1.118h0.005c0.591,0,0.888-0.625,0.642-1.118c0-0.004-0.004-0.008-0.004-0.008
		c-0.423-0.842-1.705-0.09-1.275,0.766V56.479z"/>
	<path fill="#FFFFFF" d="M52.511,60.139c2.014-4.688,6.575-7.779,11.692-7.809c0.96-0.004,0.96-1.492,0-1.487
		c-5.593,0.033-10.766,3.392-12.981,8.548c-0.161,0.374-0.114,0.795,0.268,1.016C51.812,60.589,52.353,60.513,52.511,60.139
		L52.511,60.139z"/>
	<path fill="#FFFFFF" d="M42.914,64.353c0.017-4.744,1.674-9.374,4.721-13.021c3.015-3.604,7.213-6.04,11.817-6.933
		c4.789-0.926,9.849-0.004,14.048,2.453c4.09,2.388,7.257,6.244,8.841,10.702c0.378,1.063,0.66,2.156,0.859,3.261
		c0.174,0.943,1.606,0.545,1.438-0.396c-0.873-4.777-3.372-9.173-7.006-12.395c-3.693-3.272-8.435-5.169-13.354-5.437
		c-4.842-0.259-9.724,1.186-13.668,3.987c-3.872,2.751-6.755,6.729-8.19,11.248c-0.668,2.1-0.987,4.318-0.995,6.525
		c-0.004,0.964,1.484,0.964,1.487,0.004L42.914,64.353z"/>
</g>
</svg>
