<?xml version="1.0" encoding="UTF-8"?>
<svg fill="#FFFFFF" width="100pt" height="100pt" version="1.1" viewBox="0 0 100 100" xmlns="http://www.w3.org/2000/svg">
 <path d="m69.699 34.102v-0.89844c0-7.3008-6.6992-13.199-15-13.199-5 0-9.6016 2.1016-12.398 5.8008-0.69922-0.19922-1.5-0.19922-2.1992-0.19922-5.1992 0-9.8008 3.8008-10.602 9-3.6992 1.8984-6 5.6016-6 9.6992 0 6 4.8984 10.898 10.898 10.898h31.301c6 0 10.898-4.8984 10.898-10.898-0.097656-4.5039-2.7969-8.5039-6.8984-10.203zm-4.0977 19.797h-31.203c-5.3008 0-9.6992-4.3008-9.6992-9.6992 0-3.6992 2.1992-7.1992 5.6016-8.8008l0.30078-0.10156v-0.30078c0.69922-4.6992 4.6992-8.1992 9.5-8.1992 0.80078 0 1.6016 0.10156 2.3008 0.30078l0.39844 0.10156 0.19922-0.30078c2.5-3.5 6.8984-5.6016 11.602-5.6016 7.6016 0 13.801 5.3984 13.801 11.898 0 0.39844 0 0.80078-0.10156 1.3008l-0.10156 0.5 0.5 0.19922c3.8984 1.3984 6.5 5 6.5 9.1016 0.10156 5.3047-4.1992 9.6016-9.5977 9.6016zm-15.602 5.5l-0.5 0.60156c-0.30078 0.30078-6.1992 7.3008-6.1992 12.699 0 4.8984 2.3008 7.3984 6.6992 7.3984 4.5 0 6.6992-2.5 6.6992-7.3984 0-5.3984-6-12.398-6.1992-12.699zm0 19.402c-3.6992 0-5.5-1.8984-5.5-6.1016 0-4.1016 4.1016-9.6016 5.5-11.301 1.3984 1.6992 5.5 7.1992 5.5 11.301 0 4.1016-1.8008 6.1016-5.5 6.1016zm-14-19.902l-0.5 0.5c-0.19922 0.19922-4 4.6016-4 8.1016 0 3.1992 1.5 4.8984 4.3984 4.8984 2.8984 0 4.3984-1.6992 4.3984-4.8984 0-3.5-3.8008-7.8984-4-8.1016zm0 12.301c-2.1992 0-3.1992-1.1016-3.1992-3.6016 0-2.3984 2.1992-5.5 3.1992-6.8008 1 1.3008 3.1992 4.3984 3.1992 6.8008 0 2.5039-1 3.6016-3.1992 3.6016zm28-12.301l-0.5 0.5c-0.19922 0.19922-4 4.6016-4 8.1016 0 3.1992 1.5 4.8984 4.3984 4.8984 2.8984 0 4.3984-1.6992 4.3984-4.8984 0-3.5-3.8008-7.8984-4-8.1016zm0 12.301c-2.1992 0-3.1992-1.1016-3.1992-3.6016 0-2.3984 2.1992-5.5 3.1992-6.8008 1 1.3008 3.1992 4.3984 3.1992 6.8008 0 2.5039-1 3.6016-3.1992 3.6016z"/>
</svg>
